<?xml version="1.0" encoding="UTF-8"?>
<svg width="200px" height="200px" viewBox="0 0 200 200" version="1.1" xmlns="http://www.w3.org/2000/svg" xmlns:xlink="http://www.w3.org/1999/xlink">
    <!-- Generator: Sketch 51.2 (57519) - http://www.bohemiancoding.com/sketch -->
    <title>icon-mask</title>
    <desc>Created with Sketch.</desc>
    <defs></defs>
    <g id="icon-mask" stroke="none" stroke-width="1" fill="none" fill-rule="evenodd">
        <path d="M106.118795,5.65685425 L195.267027,94.8050865 C198.391222,97.9292809 198.391222,102.994601 195.267027,106.118795 L106.118795,195.267027 C102.994601,198.391222 97.9292809,198.391222 94.8050865,195.267027 L5.65685425,106.118795 C2.53265992,102.994601 2.53265992,97.9292809 5.65685425,94.8050865 L94.8050865,5.65685425 C97.9292809,2.53265992 102.994601,2.53265992 106.118795,5.65685425 Z M125.924368,74.3534523 C126.394419,74.706895 126.839934,75.0809015 127.277701,75.4626196 L134.331046,69.9540553 L134.550575,69.6687307 C133.471008,68.5826979 132.311377,67.5557863 131.053604,66.6111305 C114.867843,54.4501331 90.4058316,59.5409924 76.4218202,77.9842722 C62.4391002,96.4236963 64.2250349,121.227658 80.4146693,133.389941 C93.6329111,143.319752 112.361336,141.74404 126.402167,130.796315 L126.387962,130.768039 L119.672951,125.525521 C109.268557,132.185666 96.3602388,132.665062 87.0212075,125.65019 C74.5868142,116.307737 73.2141109,97.2539652 83.9542552,83.087984 C94.6982735,68.9220028 113.488683,65.0122845 125.924368,74.3534523 Z" id="Logo" fill="#FFFFFF"></path>
    </g>
</svg>